<svg xmlns="http://www.w3.org/2000/svg" xmlns:xlink="http://www.w3.org/1999/xlink" width="389" zoomAndPan="magnify" viewBox="0 0 291.75 183.750001" height="245" preserveAspectRatio="xMidYMid meet" version="1.0"><defs><clipPath id="946c7ba366"><path d="M 0.0742188 111 L 29 111 L 29 162 L 0.0742188 162 Z M 0.0742188 111 " clip-rule="nonzero"/></clipPath></defs><g clip-path="url(#946c7ba366)"><path fill="#002663" d="M 0.9375 161.691406 L 0.9375 111 L 10.246094 111 L 10.246094 153.851562 L 28.417969 153.851562 L 28.417969 161.691406 L 0.925781 161.691406 Z M 0.9375 161.691406 " fill-opacity="1" fill-rule="nonzero"/></g><path fill="#002663" d="M 38.433594 119.6875 C 35.265625 119.6875 32.734375 117.21875 32.734375 114.082031 C 32.734375 110.949219 35.265625 108.53125 38.433594 108.53125 C 41.601562 108.53125 44.191406 111 44.191406 114.082031 C 44.191406 117.167969 41.660156 119.6875 38.433594 119.6875 Z M 33.792969 161.691406 L 33.792969 125.320312 L 43.042969 125.320312 L 43.042969 161.691406 Z M 33.792969 161.691406 " fill-opacity="1" fill-rule="nonzero"/><path fill="#002663" d="M 72.683594 115.625 C 71.210938 115.011719 69.597656 114.628906 68.054688 114.628906 C 65.128906 114.628906 63.738281 116.371094 63.738281 119.535156 L 63.738281 125.320312 L 73.359375 125.320312 L 70.980469 132.386719 L 63.738281 132.386719 L 63.738281 161.691406 L 54.5 161.691406 L 54.5 132.386719 L 49.183594 132.386719 L 49.183594 125.320312 L 54.5 125.320312 L 54.5 120.230469 C 54.5 109.457031 62.285156 107.21875 67.367188 107.21875 C 69.285156 107.21875 72.140625 107.683594 74.519531 108.84375 L 72.683594 115.636719 Z M 72.683594 115.625 " fill-opacity="1" fill-rule="nonzero"/><path fill="#002663" d="M 97.242188 139.378906 L 83.0625 139.378906 C 83.0625 135.398438 85.765625 131.386719 90.222656 131.386719 C 94.921875 131.386719 97.082031 135.480469 97.230469 139.378906 Z M 106.78125 145.910156 L 106.78125 143.238281 C 106.78125 131.929688 100.308594 124.472656 90.453125 124.472656 C 80.054688 124.472656 73.894531 133.082031 73.894531 143.46875 C 73.894531 153.234375 79.28125 162.46875 91.996094 162.46875 C 96.304688 162.46875 101.15625 161.308594 105.230469 158.457031 L 102.992188 152.539062 C 99.84375 154.242188 97 155.089844 93.519531 155.089844 C 87.902344 155.089844 83.433594 151.3125 83.285156 145.910156 Z M 106.78125 145.910156 " fill-opacity="1" fill-rule="nonzero"/><path fill="#002663" d="M 137.101562 142.925781 C 137.101562 149.6875 132.5625 154.929688 126.410156 154.929688 C 124.554688 154.929688 123.242188 154.699219 121.871094 154.234375 L 121.871094 133.382812 C 123.171875 132.839844 124.714844 132.222656 127.015625 132.222656 C 133.328125 132.222656 137.101562 137.210938 137.101562 142.917969 Z M 146.347656 142.160156 C 146.347656 130.308594 137.945312 124.472656 128.941406 124.472656 C 126.257812 124.472656 124.019531 124.9375 121.859375 125.550781 L 121.859375 107.21875 L 112.613281 107.21875 L 112.613281 159.847656 C 115.628906 161.539062 119.703125 162.46875 124.625 162.46875 C 136.402344 162.46875 146.339844 154.9375 146.339844 142.160156 Z M 146.347656 142.160156 " fill-opacity="1" fill-rule="nonzero"/><path fill="#002663" d="M 178.289062 143.46875 C 178.289062 150.304688 175.375 155.292969 169.59375 155.292969 C 163.816406 155.292969 160.667969 150.535156 160.667969 143.46875 C 160.667969 136.40625 163.515625 131.769531 169.363281 131.769531 C 175.214844 131.769531 178.289062 136.445312 178.289062 143.46875 Z M 187.75 143.390625 C 187.75 137.835938 186.125 133.082031 182.917969 129.683594 C 179.75 126.367188 175.132812 124.472656 169.515625 124.472656 C 164.199219 124.472656 159.8125 126.367188 156.574219 129.613281 C 153.195312 133.089844 151.269531 138 151.269531 143.703125 C 151.269531 149.40625 153.265625 154.554688 156.878906 157.914062 C 160.042969 160.84375 164.351562 162.46875 169.433594 162.46875 C 174.898438 162.46875 179.367188 160.542969 182.605469 157.21875 C 185.972656 153.851562 187.75 148.914062 187.75 143.390625 Z M 187.75 143.390625 " fill-opacity="1" fill-rule="nonzero"/><path fill="#002663" d="M 214.144531 152.851562 C 212.914062 153.929688 210.855469 155.171875 207.617188 155.171875 C 203.753906 155.171875 201.699219 153.085938 201.699219 150.082031 C 201.699219 147.078125 203.90625 145.324219 208.917969 145.175781 L 214.132812 145.023438 L 214.132812 152.863281 Z M 224.226562 161.691406 C 223.683594 160 223.53125 157.289062 223.53125 152.078125 L 223.53125 137.675781 C 223.53125 128.140625 218.078125 124.464844 209.078125 124.464844 C 204.21875 124.464844 199.691406 125.230469 194.828125 128.445312 L 197.84375 134.230469 C 200.164062 132.839844 203.21875 131.527344 207.234375 131.527344 C 211.25 131.527344 214.152344 133.300781 214.152344 137.664062 L 214.152344 138.59375 L 207.699219 138.824219 C 198.390625 139.136719 192.46875 143.21875 192.46875 150.757812 C 192.46875 157.902344 197.683594 162.457031 204.371094 162.457031 C 209.242188 162.457031 212.550781 160.601562 214.917969 158.445312 L 216.460938 161.691406 Z M 224.226562 161.691406 " fill-opacity="1" fill-rule="nonzero"/><path fill="#002663" d="M 243.855469 162.46875 C 237.398438 162.46875 234.847656 158.839844 234.847656 153.929688 L 234.847656 132.234375 L 228.394531 132.234375 L 228.394531 125.320312 L 234.847656 125.320312 L 234.847656 116.90625 L 244.085938 114.164062 L 244.085938 125.320312 L 255.414062 125.320312 L 252.710938 132.234375 L 244.097656 132.234375 L 244.097656 150.535156 C 244.097656 153.386719 245.175781 154.707031 247.578125 154.707031 C 249.976562 154.707031 252.257812 153.628906 253.648438 152.703125 L 256.117188 158.539062 C 252.335938 161.238281 247.425781 162.476562 243.875 162.476562 Z M 243.855469 162.46875 " fill-opacity="1" fill-rule="nonzero"/><path fill="#002663" d="M 271.429688 162.46875 C 265.417969 162.46875 260.96875 160.925781 257.953125 159.070312 L 260.96875 152.308594 C 263.640625 154.164062 267.113281 155.515625 270.742188 155.515625 C 274.375 155.515625 276.964844 154.152344 276.964844 151.683594 C 276.964844 145.152344 260.191406 147.59375 260.191406 135.238281 C 260.191406 128.90625 265.183594 124.464844 273.949219 124.464844 C 278.507812 124.464844 281.726562 125.160156 284.578125 126.289062 L 284.578125 134.007812 C 281.503906 132.777344 278.207031 131.617188 274.261719 131.617188 C 271.125 131.617188 269.117188 132.617188 269.117188 134.785156 C 269.117188 140.539062 286.195312 138.613281 286.195312 151.160156 C 286.195312 159.3125 279.273438 162.476562 271.417969 162.476562 Z M 271.429688 162.46875 " fill-opacity="1" fill-rule="nonzero"/><path fill="#002663" d="M 257.328125 27.734375 C 263.492188 38.003906 262.796875 41.773438 267.476562 52.132812 C 269.261719 56.09375 273.152344 58.753906 275.078125 64.871094 C 277.226562 71.714844 277.003906 80.011719 289.765625 95.21875 C 280.304688 98.714844 281.210938 96.105469 271.933594 96.132812 C 264.773438 96.164062 260.859375 98.664062 255.804688 98.664062 C 251.863281 98.664062 248.101562 97.03125 244.289062 97.222656 C 238.339844 97.535156 234.910156 101.527344 228.796875 101.726562 C 222.203125 101.941406 220.839844 100.042969 216.097656 100.035156 C 209.734375 100.035156 206.667969 104.226562 194.921875 104.699219 C 188.960938 104.941406 184.976562 101.554688 177.511719 101.195312 C 175.605469 101.101562 172.902344 101.144531 170.433594 102.515625 C 168.285156 99.199219 166.832031 93.726562 166.832031 89.632812 C 166.832031 86.035156 167.617188 80.453125 166.820312 75.433594 C 165.894531 69.699219 161.972656 65.789062 160.003906 56.851562 C 157.363281 44.886719 163.554688 42.269531 153.046875 21.0625 C 158.21875 19.84375 164.007812 19.835938 165.753906 19.835938 C 174.304688 19.835938 176.917969 23.816406 183.242188 23.816406 C 188.101562 23.816406 189.796875 21.214844 196.585938 21.214844 C 202.585938 21.214844 205.035156 27.171875 213.6875 27.171875 C 218.027344 27.171875 222.402344 24.78125 225.742188 24.78125 C 228.070312 24.78125 230.691406 26.445312 234.707031 26.445312 C 238.722656 26.445312 242.25 24.722656 246.253906 24.722656 C 250.832031 24.722656 253.496094 27.878906 256.148438 27.878906 C 256.632812 27.878906 256.964844 27.828125 257.339844 27.726562 Z M 257.328125 27.734375 " fill-opacity="1" fill-rule="nonzero"/><path fill="#ffffff" d="M 156.90625 23.9375 C 158.683594 23.554688 163.503906 23.292969 165.511719 23.292969 C 173.023438 23.292969 177.703125 26.34375 182.546875 26.34375 C 186.570312 26.34375 189.785156 23.121094 194.457031 23.121094 C 196.261719 23.121094 197.300781 23.625 198.066406 24.078125 C 200.324219 31.433594 203.632812 46.207031 203.632812 46.207031 C 203.007812 46.109375 201.941406 46.230469 201.34375 46.230469 C 196.59375 46.230469 188.839844 50.582031 183.007812 50.582031 C 177.996094 50.582031 172.078125 48.214844 166.488281 48.214844 C 164.019531 48.214844 162.375 48.769531 161.871094 48.917969 C 162.171875 34.808594 158.371094 27.292969 156.886719 23.9375 " fill-opacity="1" fill-rule="nonzero"/><path fill="#ffffff" d="M 265.175781 50.8125 C 264.8125 50.996094 263.914062 51.035156 263.570312 51.035156 C 258.941406 51.035156 259.183594 48.414062 253.71875 48.414062 C 249.574219 48.414062 244.722656 50.402344 240.898438 50.402344 C 238.871094 50.402344 237.027344 50.140625 233.851562 49.375 C 231.78125 43.578125 230.613281 35.828125 227.242188 27.109375 C 228.382812 27.3125 230.390625 28.070312 232.570312 28.070312 C 238.820312 28.070312 241.3125 26.074219 245.105469 26.074219 C 250.066406 26.074219 251.824219 29.21875 255.414062 29.21875 C 255.414062 29.21875 256.160156 29.207031 256.511719 29.136719 C 259.417969 34.207031 260.941406 38.589844 263.066406 44.796875 C 263.773438 46.863281 264.410156 48.808594 265.1875 50.835938 Z M 265.175781 50.8125 " fill-opacity="1" fill-rule="nonzero"/><path fill="#ffffff" d="M 284.578125 92.355469 C 278.953125 84.859375 275.703125 78.226562 273.433594 68.199219 C 272.890625 68.371094 271.488281 69.003906 269.734375 68.875 C 264.863281 68.519531 264.582031 67.078125 260.597656 66.910156 C 255.988281 66.707031 251.941406 68.640625 247.566406 68.933594 C 245.066406 69.105469 242.300781 68.792969 240.023438 68.511719 C 242.542969 78.769531 243.976562 84.59375 248.039062 94.964844 C 257.945312 95.863281 263.519531 92.425781 269.167969 92.425781 C 274.816406 92.425781 274.402344 93.292969 278.679688 93.292969 C 280.515625 93.292969 282.601562 93 284.570312 92.355469 Z M 284.578125 92.355469 " fill-opacity="1" fill-rule="nonzero"/><path fill="#ffffff" d="M 208.738281 67.535156 C 210.039062 74.539062 213.507812 89.542969 215.585938 96.519531 C 215.230469 96.488281 215.171875 96.425781 214.152344 96.425781 C 205.558594 96.425781 199.871094 101.132812 190.523438 101.132812 C 185.53125 101.132812 182.433594 99.199219 177.289062 99.199219 C 175.605469 99.199219 173.488281 99.371094 171.734375 99.964844 C 170.050781 97.484375 168.636719 92.203125 168.636719 89.179688 C 168.636719 82.53125 169.261719 80.171875 168.578125 74.488281 C 168.535156 74.132812 168.4375 72.875 168.050781 71.375 C 168.808594 71.191406 170.148438 70.949219 171.230469 70.949219 C 175.980469 70.949219 180.496094 71.988281 186.085938 72.070312 C 195.585938 72.199219 199.558594 67.140625 208.738281 67.523438 Z M 208.738281 67.535156 " fill-opacity="1" fill-rule="nonzero"/><path fill="#dd2330" d="M 259.324219 70.457031 C 259.324219 70.457031 262.894531 83.539062 266.316406 88.707031 C 266.316406 88.707031 262.632812 89.152344 261.011719 89.683594 C 260.910156 89.714844 257.730469 84.917969 254.394531 71.382812 C 254.394531 71.382812 256.886719 70.679688 259.324219 70.464844 Z M 259.324219 70.457031 " fill-opacity="1" fill-rule="nonzero"/><path fill="#dd2330" d="M 191.582031 91.953125 C 190.441406 87.054688 190.574219 80.867188 189 75.695312 C 187.71875 75.796875 185.054688 75.835938 183.484375 75.667969 C 185.710938 83.648438 184.84375 91.097656 186.972656 96.617188 C 187.921875 96.808594 190.460938 96.972656 192.074219 96.851562 C 192.820312 96.789062 197.230469 96.589844 201.847656 94.574219 C 201.496094 92.992188 201.214844 91.769531 201.042969 90.066406 C 199.550781 90.632812 194.535156 91.953125 191.582031 91.953125 Z M 191.582031 91.953125 " fill-opacity="1" fill-rule="nonzero"/><path fill="#dd2330" d="M 249.078125 29.984375 C 248.34375 29.246094 246.03125 28.976562 244.5 29.269531 C 244.5 29.269531 247.03125 34.035156 248.011719 36.847656 C 248.011719 36.847656 243.128906 31.757812 240.132812 30.125 C 240.132812 30.125 238.570312 30.6875 236.625 30.960938 C 236.625 30.960938 238.175781 33.539062 241.554688 46.824219 C 241.554688 46.824219 243.351562 46.78125 246.132812 46.136719 C 246.132812 46.136719 244.589844 40.332031 243.886719 38.265625 C 243.886719 38.265625 246.394531 39.707031 251.105469 45.390625 C 251.105469 45.390625 253.394531 45.160156 255.433594 45.453125 C 255.433594 45.453125 253.132812 36.996094 249.070312 29.984375 Z M 249.078125 29.984375 " fill-opacity="1" fill-rule="nonzero"/><path fill="#dd2330" d="M 244.320312 94.816406 C 238.601562 94.816406 233.496094 99.429688 228.464844 99.429688 C 225.507812 99.429688 222.371094 98 219.628906 97.332031 C 216.925781 88.253906 213.132812 71.132812 212.035156 64.984375 C 209.9375 64.339844 208.949219 64.277344 206.476562 64.277344 C 200.203125 64.277344 192.125 68.710938 185.972656 68.710938 C 181.777344 68.710938 178.734375 67.492188 173.539062 67.492188 C 172.289062 67.492188 170.441406 67.371094 166.792969 67.917969 C 165.601562 65.800781 163.25 61.980469 162.253906 52.609375 C 163.171875 52.246094 165.46875 51.882812 167.347656 51.882812 C 173.195312 51.882812 178.804688 54.269531 184.21875 54.269531 C 191.058594 54.269531 195.101562 49.605469 203.261719 49.605469 C 205.289062 49.605469 206.578125 49.535156 208.183594 50.1875 C 205.964844 42.15625 204.136719 32.886719 202.253906 26.425781 C 205.972656 28.53125 209.03125 29.308594 212.429688 29.308594 C 217.550781 29.308594 222.402344 26.839844 223.824219 26.839844 C 227.6875 37.53125 228.414062 44.0625 231.511719 51.902344 C 234.867188 53.011719 238.8125 53.363281 241.113281 53.363281 C 245.117188 53.363281 250.398438 51.449219 254.070312 51.449219 C 259.769531 51.449219 259.941406 53.835938 263.542969 53.835938 C 264.582031 53.835938 265.628906 53.6875 266.195312 53.503906 C 268.433594 58.441406 271.628906 61.035156 272.808594 65.375 C 272.035156 65.761719 270.519531 66.042969 269.429688 66.042969 C 265.285156 66.042969 263.429688 63.894531 259.71875 63.894531 C 254.796875 63.894531 250.320312 65.992188 246.164062 66.023438 C 244.277344 66.03125 237.976562 65.183594 235.796875 64.984375 C 236.027344 65.730469 239.398438 83.296875 244.328125 94.804688 Z M 244.320312 94.816406 " fill-opacity="1" fill-rule="nonzero"/><path fill="#dd2330" d="M 182.929688 30.15625 C 187.09375 30.800781 188.394531 33.410156 188.394531 35.789062 C 188.394531 38.167969 186.257812 39.195312 186.257812 39.195312 C 186.800781 39.820312 191.824219 45.140625 191.824219 45.140625 C 188.707031 46.339844 186.429688 46.832031 186.429688 46.832031 L 181.324219 39.597656 L 179.628906 39.226562 C 180.496094 42.933594 180.902344 47.046875 180.902344 47.046875 C 177.683594 46.632812 175.324219 45.773438 175.324219 45.773438 C 174.679688 38.117188 172.136719 27.585938 172.136719 27.585938 C 172.136719 27.585938 179.195312 29.582031 182.917969 30.144531 Z M 181.546875 36.28125 C 182.65625 36.484375 183.59375 36.019531 183.542969 35.285156 C 183.390625 33.429688 180.871094 33.046875 180.164062 32.894531 C 179.5 32.746094 178.230469 32.484375 178.230469 32.484375 L 178.945312 35.757812 C 178.945312 35.757812 180.539062 36.109375 181.546875 36.292969 Z M 181.546875 36.28125 " fill-opacity="1" fill-rule="nonzero"/><path fill="#ffd200" d="M 236.875 78.882812 C 236.695312 77.589844 236.410156 76.320312 236.230469 75.03125 C 235.371094 76.019531 234.484375 76.964844 233.558594 77.894531 C 233.558594 77.894531 233.4375 77.996094 233.40625 78.09375 C 233.367188 78.214844 233.457031 78.429688 233.457031 78.429688 C 233.667969 78.871094 233.78125 79.101562 233.992188 79.546875 C 233.507812 80.683594 232.144531 82.238281 231.125 82.933594 C 230.402344 83.425781 229.988281 83.730469 229.625 83.539062 C 229.230469 83.335938 229.089844 82.691406 229.089844 82.691406 C 227.898438 78.839844 226.972656 74.589844 225.890625 70.09375 C 225.890625 70.09375 225.921875 70.101562 225.984375 70.082031 C 227.871094 69.621094 231.199219 67.472656 232.527344 66.746094 L 232.09375 65.066406 C 230.671875 65.496094 227.113281 67.128906 225.277344 67.414062 C 225.105469 66.675781 224.976562 66.03125 224.78125 65.316406 C 225.742188 64.46875 225.851562 63 224.984375 61.890625 C 224.046875 60.679688 222.320312 60.359375 221.132812 61.152344 C 219.941406 61.949219 219.742188 63.574219 220.679688 64.773438 C 221.019531 65.214844 221.464844 65.539062 221.960938 65.730469 C 222.109375 66.414062 222.222656 66.988281 222.382812 67.714844 C 222.382812 67.714844 220.316406 67.664062 215.453125 66.023438 L 215.917969 67.945312 C 215.917969 67.945312 219.035156 69.671875 222.988281 70.476562 C 223.734375 73.953125 224.804688 78.378906 226.234375 83.082031 C 226.234375 83.082031 226.425781 83.699219 226.09375 83.992188 C 225.78125 84.261719 225.246094 84.253906 224.429688 83.839844 C 222.320312 82.761719 221.234375 81.300781 220.355469 80.394531 C 220.40625 79.898438 220.425781 79.648438 220.476562 79.152344 C 220.476562 79.152344 220.496094 78.921875 220.417969 78.820312 C 220.355469 78.738281 220.203125 78.691406 220.203125 78.691406 C 217.742188 77.894531 216.472656 77.1875 216.472656 77.1875 L 217.542969 81.320312 C 217.542969 81.320312 217.570312 81.472656 217.640625 81.542969 C 217.734375 81.621094 217.964844 81.613281 217.964844 81.613281 C 218.449219 81.613281 218.679688 81.613281 219.164062 81.632812 C 219.164062 81.632812 221.695312 86.175781 228.886719 87.921875 C 228.886719 87.921875 234.414062 83.960938 235.542969 80 C 235.96875 79.769531 236.179688 79.648438 236.601562 79.386719 C 236.601562 79.386719 236.804688 79.265625 236.855469 79.144531 C 236.894531 79.042969 236.875 78.882812 236.875 78.882812 Z M 222.109375 62.433594 C 222.605469 62.101562 223.332031 62.242188 223.722656 62.746094 C 224.117188 63.25 224.035156 63.925781 223.53125 64.269531 C 223.039062 64.601562 222.3125 64.460938 221.917969 63.957031 C 221.527344 63.453125 221.605469 62.777344 222.109375 62.433594 Z M 222.109375 62.433594 " fill-opacity="1" fill-rule="nonzero"/><path fill="#ffd200" d="M 213.195312 54.390625 C 213.335938 54.703125 213.476562 55.027344 213.617188 55.339844 C 213.667969 55.449219 213.769531 55.539062 213.890625 55.582031 C 216.574219 56.328125 219.328125 56.570312 222.050781 56.5 C 222.050781 56.5 222.058594 56.5 222.070312 56.5 C 224.652344 56.265625 227.011719 55.742188 228.929688 54.804688 C 229.019531 54.765625 229.050781 54.652344 229.019531 54.542969 C 228.949219 54.261719 228.878906 53.980469 228.808594 53.695312 C 228.746094 53.476562 228.496094 53.3125 228.324219 53.382812 C 224.410156 55.238281 218.832031 55.5625 213.507812 54.007812 C 213.253906 53.9375 213.074219 54.148438 213.183594 54.390625 Z M 213.195312 54.390625 " fill-opacity="1" fill-rule="nonzero"/><path fill="#ffd200" d="M 227.648438 43.78125 C 224.378906 40.332031 221 38.4375 217.957031 37.773438 C 217.914062 37.773438 217.875 37.734375 217.855469 37.691406 C 217.472656 36.988281 216.644531 36.542969 215.835938 36.523438 C 215.03125 36.503906 214.507812 37.007812 214.535156 37.703125 C 214.535156 37.742188 214.515625 37.773438 214.476562 37.785156 C 211.660156 38.335938 209.363281 40.496094 207.941406 44.121094 C 207.929688 44.152344 207.941406 44.183594 207.941406 44.214844 L 208.796875 45.855469 L 209.484375 47.054688 L 210.28125 48.457031 L 212.09375 51.660156 C 212.09375 51.660156 212.09375 51.671875 212.09375 51.679688 C 212.539062 52.769531 214.898438 53.183594 215.828125 53.375 C 217.1875 53.65625 219.589844 53.859375 221.132812 53.808594 C 222.644531 53.714844 224.761719 53.3125 225.832031 52.941406 C 226.539062 52.6875 228.351562 52.132812 228.160156 51.117188 L 227.949219 47.992188 L 227.871094 46.710938 L 227.789062 45.554688 L 227.675781 44.222656 C 227.675781 44.222656 227.65625 43.808594 227.636719 43.78125 Z M 210.339844 48.394531 Z M 211.996094 49.523438 Z M 227.183594 49.101562 Z M 226.589844 45.300781 C 226.316406 44.796875 225.890625 44.292969 225.46875 43.800781 C 225.46875 43.800781 225.429688 43.757812 225.398438 43.757812 C 225.398438 43.757812 225.359375 43.757812 225.347656 43.78125 C 225.015625 44.335938 224.671875 44.917969 224.773438 45.605469 C 224.804688 45.835938 224.894531 46.078125 225.003906 46.320312 C 225.117188 46.570312 225.257812 46.832031 225.398438 47.085938 C 225.449219 47.175781 225.5 47.277344 225.550781 47.367188 C 225.328125 47.015625 225.074219 46.703125 224.792969 46.480469 C 224.53125 46.277344 224.257812 46.160156 224.015625 46.117188 C 223.914062 46.097656 223.816406 46.097656 223.734375 46.117188 C 223.734375 46.117188 223.734375 46.117188 223.722656 46.117188 C 223.433594 46.179688 223.269531 46.410156 223.210938 46.691406 C 223.148438 46.972656 223.179688 47.316406 223.382812 47.621094 C 223.550781 47.902344 223.855469 48.144531 224.148438 48.375 C 224.167969 48.386719 224.179688 48.394531 224.199219 48.394531 C 224.21875 48.394531 224.226562 48.394531 224.238281 48.394531 C 224.257812 48.375 224.269531 48.34375 224.257812 48.304688 C 224.179688 48.074219 224.117188 47.863281 224.15625 47.710938 C 224.1875 47.578125 224.300781 47.488281 224.449219 47.457031 C 224.5 47.457031 224.5625 47.449219 224.621094 47.457031 C 224.621094 47.457031 224.621094 47.457031 224.632812 47.457031 C 224.875 47.5 225.175781 47.691406 225.398438 47.960938 C 225.488281 48.0625 225.609375 48.457031 225.699219 48.707031 C 223.925781 48.917969 220.144531 47.980469 219.449219 45.746094 C 219.519531 45.675781 219.570312 45.605469 219.597656 45.511719 C 220.820312 45.753906 221.152344 46.542969 221.164062 46.570312 L 221.210938 46.703125 L 221.695312 46.703125 C 221.695312 46.703125 220.585938 43.316406 220.585938 43.316406 L 220.203125 43.316406 C 220.203125 43.316406 220.195312 43.398438 220.195312 43.398438 C 220.082031 44.132812 219.648438 44.34375 219.257812 44.382812 C 219.175781 44.304688 219.09375 44.234375 218.992188 44.171875 C 218.902344 43.890625 218.800781 43.246094 219.5 42.832031 L 219.558594 42.792969 L 219.4375 42.398438 L 216.191406 42.398438 C 216.191406 42.398438 216.332031 42.871094 216.332031 42.871094 L 216.441406 42.894531 C 216.441406 42.894531 217.390625 43.085938 217.824219 44.09375 C 217.734375 44.171875 217.664062 44.273438 217.621094 44.394531 C 217.230469 44.414062 216.554688 44.273438 215.878906 43.40625 L 215.816406 43.328125 L 215.421875 43.328125 C 215.421875 43.328125 216.414062 46.78125 216.414062 46.78125 L 216.785156 46.78125 C 216.785156 46.78125 216.917969 46.78125 216.917969 46.78125 L 216.886719 46.652344 C 216.886719 46.652344 216.703125 45.746094 217.957031 45.503906 C 218.027344 45.574219 218.097656 45.632812 218.175781 45.695312 C 218.851562 47.933594 215.484375 49.089844 213.375 49.109375 C 213.304688 48.847656 213.175781 48.367188 213.195312 48.246094 C 213.265625 47.953125 213.457031 47.742188 213.699219 47.679688 C 213.699219 47.679688 213.699219 47.679688 213.710938 47.679688 C 213.769531 47.671875 213.832031 47.671875 213.902344 47.679688 C 214.082031 47.699219 214.253906 47.789062 214.375 47.921875 C 214.515625 48.074219 214.585938 48.292969 214.648438 48.535156 C 214.648438 48.535156 214.6875 48.605469 214.71875 48.628906 C 214.738281 48.628906 214.746094 48.628906 214.769531 48.628906 C 214.777344 48.628906 214.796875 48.617188 214.808594 48.605469 C 214.96875 48.355469 215.132812 48.09375 215.132812 47.800781 C 215.132812 47.476562 214.960938 47.136719 214.707031 46.84375 C 214.464844 46.5625 214.132812 46.320312 213.789062 46.269531 C 213.789062 46.269531 213.789062 46.269531 213.78125 46.269531 C 213.679688 46.257812 213.578125 46.269531 213.476562 46.269531 C 213.246094 46.320312 213.023438 46.449219 212.871094 46.671875 C 212.710938 46.914062 212.640625 47.246094 212.628906 47.628906 C 212.628906 47.527344 212.621094 47.429688 212.609375 47.328125 C 212.589844 47.054688 212.578125 46.78125 212.539062 46.511719 C 212.5 46.25 212.429688 45.996094 212.316406 45.753906 C 211.972656 45.039062 211.21875 44.433594 210.472656 43.851562 C 210.453125 43.832031 210.421875 43.820312 210.402344 43.832031 C 210.402344 43.832031 210.359375 43.851562 210.351562 43.871094 C 210.210938 44.414062 210.070312 44.96875 210.097656 45.523438 L 209.371094 44.242188 C 210.664062 41.402344 212.769531 39.296875 215.050781 38.839844 C 215.496094 39.335938 216.148438 39.667969 216.796875 39.679688 C 217.441406 39.6875 217.84375 39.4375 217.984375 38.972656 C 220.425781 39.496094 223.867188 41.664062 226.566406 44.285156 L 226.566406 45.292969 Z M 226.589844 45.300781 " fill-opacity="1" fill-rule="nonzero"/><path fill="#ffd200" d="M 216.957031 35.605469 C 216.269531 35.074219 215.664062 34.15625 215.65625 34.136719 C 215.664062 34.136719 216.714844 34.4375 217.472656 34.890625 C 216.996094 33.277344 216.605469 32.3125 216.605469 32.3125 C 216.160156 32.804688 215.375 33.035156 215.363281 33.046875 C 215.363281 33.027344 215.382812 32.179688 215.625 31.65625 C 214.34375 31.816406 212.851562 31.777344 212.851562 31.777344 C 213.546875 32.3125 214.023438 33.085938 214.03125 33.105469 C 214.03125 33.105469 213.105469 32.945312 212.347656 32.492188 C 212.347656 32.492188 212.78125 33.519531 213.203125 35.074219 C 213.648438 34.570312 214.507812 34.234375 214.507812 34.234375 C 214.507812 34.257812 214.496094 35.152344 214.171875 35.726562 C 214.171875 35.726562 215.28125 35.597656 216.945312 35.605469 Z M 216.957031 35.605469 " fill-opacity="1" fill-rule="nonzero"/></svg>